<?xml version="1.0" encoding="UTF-8" standalone="no"?>
<svg width="73px" height="71px" viewBox="0 0 73 71" version="1.1" xmlns="http://www.w3.org/2000/svg" xmlns:xlink="http://www.w3.org/1999/xlink">
    <!-- Generator: Sketch 50.2 (55047) - http://www.bohemiancoding.com/sketch -->
    <title>Group</title>
    <desc>Created with Sketch.</desc>
    <defs></defs>
    <g id="Page-1" stroke="none" stroke-width="1" fill="none" fill-rule="evenodd">
        <g id="Group-4" transform="translate(-13.000000, -7.000000)" stroke="#69747C" stroke-width="4.5">
            <g id="Group" transform="translate(46.255326, 45.875820) rotate(15.000000) translate(-46.255326, -45.875820) translate(11.755326, 11.875820)">
                <path d="M21.1764976,0 C21.1764976,0 25.2426651,3.95774729 33.375,11.8732419 L29.3203407,28.3175355 L12.3017969,33.3085073 L0,21.4651019 L4.27461271,4.55254207 C15.542536,1.51751402 21.1764976,0 21.1764976,0 Z" id="Path-2" fill="#84DD63"></path>
                <path d="M31.4889976,33.8667504 C31.4889976,33.8667504 35.5551651,37.8244977 43.6875,45.7399923 L39.6328407,62.1842859 L22.6142969,67.1752577 L10.3125,55.3318523 L14.5871127,38.4192925 C25.855036,35.3842645 31.4889976,33.8667504 31.4889976,33.8667504 Z" id="Path-2-Copy" fill="#CBFF4D"></path>
                <path d="M56.0514976,7.81540395 C56.0514976,7.81540395 60.1176651,11.7731512 68.25,19.6886458 L64.1953407,36.1329394 L47.1767969,41.1239112 L34.875,29.2805058 L39.1496127,12.367946 C50.417536,9.33291797 56.0514976,7.81540395 56.0514976,7.81540395 Z" id="Path-2-Copy-2" fill="#6BAA75"></path>
            </g>
        </g>
    </g>
</svg>